<svg id="Layer_1" data-name="Layer 1" xmlns="http://www.w3.org/2000/svg" xmlns:xlink="http://www.w3.org/1999/xlink" viewBox="0 0 371.28 462.57"><defs><style>.cls-1{fill:url(#linear-gradient);}.cls-2{fill:url(#linear-gradient-2);}.cls-3{fill:url(#linear-gradient-3);}.cls-4{fill:url(#linear-gradient-4);}.cls-5{fill:url(#linear-gradient-5);}.cls-6{fill:url(#linear-gradient-6);}.cls-7{fill:url(#linear-gradient-7);}.cls-8{fill:url(#linear-gradient-8);}.cls-9{fill:#396a28;}</style><linearGradient id="linear-gradient" x1="91.3" y1="149.88" x2="91.3" y2="207.62" gradientUnits="userSpaceOnUse"><stop offset="0" stop-color="#346323"/><stop offset="1" stop-color="#9bcc60"/></linearGradient><linearGradient id="linear-gradient-2" x1="91.3" y1="92.13" x2="91.3" y2="149.88" gradientUnits="userSpaceOnUse"><stop offset="0" stop-color="#c0db70"/><stop offset="0.04" stop-color="#bad96d"/><stop offset="0.32" stop-color="#95cb57"/><stop offset="0.59" stop-color="#79c048"/><stop offset="0.82" stop-color="#69ba3e"/><stop offset="1" stop-color="#63b83b"/></linearGradient><linearGradient id="linear-gradient-3" x1="127.89" y1="244.22" x2="185.64" y2="244.22" gradientUnits="userSpaceOnUse"><stop offset="0" stop-color="#c9e074"/><stop offset="0.13" stop-color="#b5d869"/><stop offset="0.37" stop-color="#92cb56"/><stop offset="0.61" stop-color="#79c248"/><stop offset="0.82" stop-color="#6abc40"/><stop offset="1" stop-color="#65ba3d"/></linearGradient><linearGradient id="linear-gradient-4" x1="185.64" y1="244.22" x2="243.39" y2="244.22" gradientUnits="userSpaceOnUse"><stop offset="0" stop-color="#336123"/><stop offset="1" stop-color="#9acc5c"/></linearGradient><linearGradient id="linear-gradient-5" x1="279.98" y1="207.63" x2="279.98" y2="149.87" gradientUnits="userSpaceOnUse"><stop offset="0" stop-color="#c5e06c"/><stop offset="0.02" stop-color="#c2df6b"/><stop offset="0.32" stop-color="#9bcf57"/><stop offset="0.59" stop-color="#7ec349"/><stop offset="0.83" stop-color="#6dbc40"/><stop offset="1" stop-color="#67ba3d"/></linearGradient><linearGradient id="linear-gradient-6" x1="279.98" y1="92.13" x2="279.98" y2="149.88" gradientUnits="userSpaceOnUse"><stop offset="0" stop-color="#9bcf5a"/><stop offset="0.56" stop-color="#5d8f39"/><stop offset="1" stop-color="#316121"/></linearGradient><linearGradient id="linear-gradient-7" x1="185.64" y1="55.53" x2="243.39" y2="55.53" gradientUnits="userSpaceOnUse"><stop offset="0" stop-color="#305c20"/><stop offset="1" stop-color="#99cc5e"/></linearGradient><linearGradient id="linear-gradient-8" x1="127.89" y1="55.53" x2="185.64" y2="55.53" gradientUnits="userSpaceOnUse"><stop offset="0" stop-color="#c5e06b"/><stop offset="0.28" stop-color="#a0d05a"/><stop offset="0.58" stop-color="#7dc14a"/><stop offset="0.84" stop-color="#67b840"/><stop offset="1" stop-color="#5fb53c"/></linearGradient></defs><title>ELLA_Enthusiast-black</title><g id="LeftLeaf"><polygon id="LeftBottom" class="cls-1" points="35.76 149.88 117.58 207.63 146.83 178.06 118.51 149.88 35.76 149.88"/><polygon id="LeftTop" class="cls-2" points="35.76 149.88 117.58 92.13 146.83 121.69 118.51 149.88 35.76 149.88"/></g><g id="BottomLeaf"><polygon id="BottomLeft" class="cls-3" points="185.64 299.75 127.89 217.94 157.45 188.69 185.64 217 185.64 299.75"/><polygon id="BottomRight" class="cls-4" points="185.64 299.75 243.39 217.94 213.83 188.69 185.64 217 185.64 299.75"/></g><g id="RightLeaf"><polygon id="RightBottomLeaf" class="cls-5" points="335.51 149.88 253.7 207.63 224.45 178.06 252.76 149.88 335.51 149.88"/><polygon id="RightTopLeaf" class="cls-6" points="335.51 149.88 253.7 92.13 224.45 121.69 252.76 149.88 335.51 149.88"/></g><g id="TopLeaf"><polygon id="TopRight" class="cls-7" points="185.64 0 243.39 81.81 213.83 111.06 185.64 82.75 185.64 0"/><polygon id="TopLeft" class="cls-8" points="185.64 0 127.89 81.81 157.45 111.06 185.64 82.75 185.64 0"/></g><rect id="Center" class="cls-9" x="167.13" y="166.13" width="66.75" height="66.75" transform="translate(-97.2 150.58) rotate(-45)"/><g id="Ellaism-Europa-wht"><path d="M29.44,390.16H63.17v13.73H29.44v22.65H66.78v13.73H15V356H66.06v13.73H29.44Z" transform="translate(-14.86 -49.63)"/><path d="M80.76,349.2H95.22v91.07H80.76Z" transform="translate(-14.86 -49.63)"/><path d="M113,349.2H127.5v91.07H113Z" transform="translate(-14.86 -49.63)"/><path d="M193.76,403.05v37.22H180.38v-7.22s-5.9,8.67-18.79,8.67c-10.72,0-20.6-7-20.6-19.16,0-11,10-18.91,22.41-18.91,10.48,0,15.9,4.1,15.9,4.1V404.5c0-7.47-7.23-9.88-12.29-9.88-8.31,0-17.1,4.21-17.1,4.21l-4.7-11.92s10.6-5.18,22.52-5.18C184.12,381.73,193.76,390,193.76,403.05Zm-14.46,20v-5.91a28.88,28.88,0,0,0-13-2.89c-4.46,0-10.6,1.93-10.6,8.07s5.9,7.35,10.36,7.35A16.94,16.94,0,0,0,179.3,423.05Z" transform="translate(-14.86 -49.63)"/><path d="M217.73,355.23a9.52,9.52,0,1,1-9.52,9.51A9.45,9.45,0,0,1,217.73,355.23Zm-7.23,27.94H225v57.1H210.5Z" transform="translate(-14.86 -49.63)"/><path d="M246.16,420.88s7.59,8.19,17.23,8.19c5.9,0,10.84-1.69,10.84-5.18,0-3.73-2.65-4.46-11.33-6.26-11.32-2.41-21.2-7.23-21.2-18.07,0-8.92,8.92-17.83,24.58-17.83a36.45,36.45,0,0,1,21.44,7l-7.23,10.6s-6.5-4.93-14.21-4.93c-5.42,0-10.36,1.92-10.36,5.42s3.85,4.33,13.49,6.38c11.32,2.41,19.39,6.15,19.39,17.95,0,9.76-10.36,17.59-24.93,17.59-16.75,0-25.78-10.36-25.78-10.36Z" transform="translate(-14.86 -49.63)"/><path d="M386.14,403.53v36.74H371.68v-33c0-7.83-3-12-10.24-12-7.59,0-11.2,7.35-11.2,7.35v37.7H335.78v-33c0-7.83-3-12-10.24-12-7.58,0-11.2,7.35-11.2,7.35v37.7H299.89v-57.1h13.49v8.31s5.18-9.75,16.86-9.75c13.74,0,17.71,10,17.71,10s4.82-10,18.19-10C377.71,381.73,386.14,389.8,386.14,403.53Z" transform="translate(-14.86 -49.63)"/></g><g id="Enthusiast"><path d="M21.75,487.62H37.83v6.54H21.75V505h17.8v6.55H14.86v-40.2H39.21v6.55H21.75Z" transform="translate(-14.86 -49.63)"/><path d="M56.72,471.31,76.82,499V471.31h6.89v40.2h-6.2l-20.1-27.62v27.62H50.52v-40.2Z" transform="translate(-14.86 -49.63)"/><path d="M104.15,477.86H93.06v-6.55h29.06v6.55H111v33.65h-6.89Z" transform="translate(-14.86 -49.63)"/><path d="M155.54,471.31h6.89v40.2h-6.89V494.22H138.37v17.29h-6.89v-40.2h6.89v16.37h17.17Z" transform="translate(-14.86 -49.63)"/><path d="M199.35,471.31h6.89v25.61c0,8.84-6,15.28-15.5,15.28s-15.51-6.44-15.51-15.28V471.31h6.89v24.75c0,5.74,2.87,9.59,8.62,9.59s8.61-3.85,8.61-9.59Z" transform="translate(-14.86 -49.63)"/><path d="M231.79,494.74c-5.92-2.07-12.58-5.28-12.58-12.75,0-5.68,5.06-11.37,13.15-11.37a17.29,17.29,0,0,1,13.1,6.37l-4.77,4.71s-3.33-4.53-8.33-4.53c-3.44,0-6.14,2.12-6.14,4.82,0,3.5,3.16,4.59,8.67,6.66,6.14,2.3,11.26,5.06,11.26,12.35s-6.44,11.2-14,11.2a17.57,17.57,0,0,1-14.7-8.22l5.17-4.36s3.45,6,9.53,6c3.45,0,7-1.38,7-4.65S236.56,496.4,231.79,494.74Z" transform="translate(-14.86 -49.63)"/><path d="M258.31,471.31h6.9v40.2h-6.9Z" transform="translate(-14.86 -49.63)"/><path d="M290.53,471.31h7l15.62,40.2H306.2L302.53,502h-17l-3.67,9.54h-6.95ZM288,495.66h12.06L294,480Z" transform="translate(-14.86 -49.63)"/><path d="M334.8,494.74c-5.92-2.07-12.58-5.28-12.58-12.75,0-5.68,5-11.37,13.15-11.37A17.28,17.28,0,0,1,348.46,477l-4.76,4.71s-3.33-4.53-8.33-4.53c-3.44,0-6.14,2.12-6.14,4.82,0,3.5,3.15,4.59,8.67,6.66,6.14,2.3,11.25,5.06,11.25,12.35s-6.43,11.2-14,11.2a17.57,17.57,0,0,1-14.7-8.22l5.17-4.36s3.44,6,9.53,6c3.45,0,7-1.38,7-4.65S339.56,496.4,334.8,494.74Z" transform="translate(-14.86 -49.63)"/><path d="M368.16,477.86H357.07v-6.55h29.06v6.55H375.05v33.65h-6.89Z" transform="translate(-14.86 -49.63)"/></g><rect x="0.12" y="402.34" width="371.15" height="7.58"/></svg>