<svg id="Layer_1" data-name="Layer 1" xmlns="http://www.w3.org/2000/svg" xmlns:xlink="http://www.w3.org/1999/xlink" viewBox="0 0 372.22 465.89"><defs><style>.cls-1{fill:url(#linear-gradient);}.cls-2{fill:url(#linear-gradient-2);}.cls-3{fill:url(#linear-gradient-3);}.cls-4{fill:url(#linear-gradient-4);}.cls-5{fill:url(#linear-gradient-5);}.cls-6{fill:url(#linear-gradient-6);}.cls-7{fill:url(#linear-gradient-7);}.cls-8{fill:url(#linear-gradient-8);}.cls-9{fill:#396a28;}</style><linearGradient id="linear-gradient" x1="91.17" y1="149.88" x2="91.17" y2="207.62" gradientUnits="userSpaceOnUse"><stop offset="0" stop-color="#346323"/><stop offset="1" stop-color="#9bcc60"/></linearGradient><linearGradient id="linear-gradient-2" x1="91.17" y1="92.13" x2="91.17" y2="149.88" gradientUnits="userSpaceOnUse"><stop offset="0" stop-color="#c0db70"/><stop offset="0.04" stop-color="#bad96d"/><stop offset="0.32" stop-color="#95cb57"/><stop offset="0.59" stop-color="#79c048"/><stop offset="0.82" stop-color="#69ba3e"/><stop offset="1" stop-color="#63b83b"/></linearGradient><linearGradient id="linear-gradient-3" x1="127.77" y1="244.22" x2="185.52" y2="244.22" gradientUnits="userSpaceOnUse"><stop offset="0" stop-color="#c9e074"/><stop offset="0.13" stop-color="#b5d869"/><stop offset="0.37" stop-color="#92cb56"/><stop offset="0.61" stop-color="#79c248"/><stop offset="0.82" stop-color="#6abc40"/><stop offset="1" stop-color="#65ba3d"/></linearGradient><linearGradient id="linear-gradient-4" x1="185.52" y1="244.22" x2="243.27" y2="244.22" gradientUnits="userSpaceOnUse"><stop offset="0" stop-color="#336123"/><stop offset="1" stop-color="#9acc5c"/></linearGradient><linearGradient id="linear-gradient-5" x1="279.86" y1="207.63" x2="279.86" y2="149.87" gradientUnits="userSpaceOnUse"><stop offset="0" stop-color="#c5e06c"/><stop offset="0.02" stop-color="#c2df6b"/><stop offset="0.32" stop-color="#9bcf57"/><stop offset="0.59" stop-color="#7ec349"/><stop offset="0.83" stop-color="#6dbc40"/><stop offset="1" stop-color="#67ba3d"/></linearGradient><linearGradient id="linear-gradient-6" x1="279.86" y1="92.13" x2="279.86" y2="149.88" gradientUnits="userSpaceOnUse"><stop offset="0" stop-color="#9bcf5a"/><stop offset="0.56" stop-color="#5d8f39"/><stop offset="1" stop-color="#316121"/></linearGradient><linearGradient id="linear-gradient-7" x1="185.52" y1="55.53" x2="243.27" y2="55.53" gradientUnits="userSpaceOnUse"><stop offset="0" stop-color="#305c20"/><stop offset="1" stop-color="#99cc5e"/></linearGradient><linearGradient id="linear-gradient-8" x1="127.77" y1="55.53" x2="185.52" y2="55.53" gradientUnits="userSpaceOnUse"><stop offset="0" stop-color="#c5e06b"/><stop offset="0.28" stop-color="#a0d05a"/><stop offset="0.58" stop-color="#7dc14a"/><stop offset="0.84" stop-color="#67b840"/><stop offset="1" stop-color="#5fb53c"/></linearGradient></defs><title>ELLA_Supporter-black</title><g id="LeftLeaf"><polygon id="LeftBottom" class="cls-1" points="35.64 149.88 117.45 207.63 146.7 178.06 118.39 149.88 35.64 149.88"/><polygon id="LeftTop" class="cls-2" points="35.64 149.88 117.45 92.13 146.7 121.69 118.39 149.88 35.64 149.88"/></g><g id="BottomLeaf"><polygon id="BottomLeft" class="cls-3" points="185.51 299.75 127.77 217.94 157.33 188.69 185.51 217 185.51 299.75"/><polygon id="BottomRight" class="cls-4" points="185.51 299.75 243.26 217.94 213.7 188.69 185.51 217 185.51 299.75"/></g><g id="RightLeaf"><polygon id="RightBottomLeaf" class="cls-5" points="335.39 149.88 253.58 207.63 224.33 178.06 252.64 149.88 335.39 149.88"/><polygon id="RightTopLeaf" class="cls-6" points="335.39 149.88 253.58 92.13 224.33 121.69 252.64 149.88 335.39 149.88"/></g><g id="TopLeaf"><polygon id="TopRight" class="cls-7" points="185.51 0 243.26 81.81 213.7 111.06 185.51 82.75 185.51 0"/><polygon id="TopLeft" class="cls-8" points="185.51 0 127.77 81.81 157.33 111.06 185.51 82.75 185.51 0"/></g><rect id="Center" class="cls-9" x="167.13" y="166.13" width="66.75" height="66.75" transform="translate(-97.33 150.58) rotate(-45)"/><path d="M30.84,496.56c-6.43-2.25-13.66-5.74-13.66-13.85,0-6.18,5.49-12.35,14.28-12.35a18.76,18.76,0,0,1,14.22,6.92l-5.17,5.12s-3.62-4.93-9-4.93c-3.74,0-6.67,2.31-6.67,5.24,0,3.8,3.43,5,9.42,7.23,6.67,2.5,12.22,5.49,12.22,13.42s-7,12.16-15.22,12.16a19.1,19.1,0,0,1-16-8.92l5.62-4.74s3.74,6.55,10.35,6.55c3.75,0,7.61-1.5,7.61-5.05S36,498.37,30.84,496.56Z" transform="translate(-14.98 -49.63)"/><path d="M85,471.11h7.49v27.82c0,9.6-6.55,16.59-16.84,16.59s-16.85-7-16.85-16.59V471.11h7.49V498c0,6.24,3.12,10.42,9.36,10.42S85,504.23,85,498Z" transform="translate(-14.98 -49.63)"/><path d="M106.38,471.11h14.84c8.67,0,14.47,6,14.47,14s-5.8,14-14.47,14h-7.36v15.72h-7.48Zm21.7,14c0-4.12-2.68-6.86-7.79-6.86h-6.43v13.72h6.43C125.4,491.94,128.08,489.2,128.08,485.08Z" transform="translate(-14.98 -49.63)"/><path d="M146.36,471.11h14.85c8.67,0,14.47,6,14.47,14s-5.8,14-14.47,14h-7.36v15.72h-7.49Zm21.71,14c0-4.12-2.68-6.86-7.8-6.86h-6.42v13.72h6.42C165.39,491.94,168.07,489.2,168.07,485.08Z" transform="translate(-14.98 -49.63)"/><path d="M228,492.94c0,12.91-9.35,22.58-22.08,22.58s-22.08-9.67-22.08-22.58,9.36-22.58,22.08-22.58S228,480,228,492.94Zm-7.61,0c0-8.42-5.67-15.47-14.47-15.47s-14.47,7-14.47,15.47,5.68,15.47,14.47,15.47S220.4,501.36,220.4,492.94Z" transform="translate(-14.98 -49.63)"/><path d="M239.43,471.11h14.34c8.68,0,14.48,5.61,14.48,13.59,0,6.55-3.5,11.54-9.73,13.1l10.91,17H260.7L250.34,498.3h-3.43v16.47h-7.48Zm21.21,13.59c0-4.3-3-6.48-7.8-6.48h-5.93v13h5.93C257.64,491.19,260.64,489,260.64,484.7Z" transform="translate(-14.98 -49.63)"/><path d="M288.77,478.22h-12v-7.11h31.56v7.11h-12v36.55h-7.48Z" transform="translate(-14.98 -49.63)"/><path d="M326,488.82h17.46v7.11H326v11.73h19.33v7.11H318.46V471.11h26.45v7.11H326Z" transform="translate(-14.98 -49.63)"/><path d="M357.2,471.11h14.34c8.67,0,14.48,5.61,14.48,13.59,0,6.55-3.5,11.54-9.73,13.1l10.91,17h-8.73L368.11,498.3h-3.43v16.47H357.2Zm21.21,13.59c0-4.3-3-6.48-7.8-6.48h-5.93v13h5.93C375.41,491.19,378.41,489,378.41,484.7Z" transform="translate(-14.98 -49.63)"/><rect y="402.34" width="371.15" height="7.58"/><g id="Ellaism-Europa-wht"><path d="M29.44,390.16H63.17v13.73H29.44v22.65H66.78v13.73H15V356H66.06v13.73H29.44Z" transform="translate(-14.98 -49.63)"/><path d="M80.76,349.2H95.22v91.07H80.76Z" transform="translate(-14.98 -49.63)"/><path d="M113,349.2H127.5v91.07H113Z" transform="translate(-14.98 -49.63)"/><path d="M193.76,403.05v37.22H180.38v-7.22s-5.9,8.67-18.79,8.67c-10.72,0-20.6-7-20.6-19.16,0-11,10-18.91,22.41-18.91,10.48,0,15.9,4.1,15.9,4.1V404.5c0-7.47-7.23-9.88-12.29-9.88-8.31,0-17.1,4.21-17.1,4.21l-4.7-11.92s10.6-5.18,22.52-5.18C184.12,381.73,193.76,390,193.76,403.05Zm-14.46,20v-5.91a28.88,28.88,0,0,0-13-2.89c-4.46,0-10.6,1.93-10.6,8.07s5.9,7.35,10.36,7.35A16.94,16.94,0,0,0,179.3,423.05Z" transform="translate(-14.98 -49.63)"/><path d="M217.73,355.23a9.52,9.52,0,1,1-9.52,9.51A9.45,9.45,0,0,1,217.73,355.23Zm-7.23,27.94H225v57.1H210.5Z" transform="translate(-14.98 -49.63)"/><path d="M246.16,420.88s7.59,8.19,17.23,8.19c5.9,0,10.84-1.69,10.84-5.18,0-3.73-2.65-4.46-11.33-6.26-11.32-2.41-21.2-7.23-21.2-18.07,0-8.92,8.92-17.83,24.58-17.83a36.45,36.45,0,0,1,21.44,7l-7.23,10.6s-6.5-4.93-14.21-4.93c-5.42,0-10.36,1.92-10.36,5.42s3.85,4.33,13.49,6.38c11.32,2.41,19.39,6.15,19.39,17.95,0,9.76-10.36,17.59-24.93,17.59-16.75,0-25.78-10.36-25.78-10.36Z" transform="translate(-14.98 -49.63)"/><path d="M386.14,403.53v36.74H371.68v-33c0-7.83-3-12-10.24-12-7.59,0-11.2,7.35-11.2,7.35v37.7H335.78v-33c0-7.83-3-12-10.24-12-7.58,0-11.2,7.35-11.2,7.35v37.7H299.89v-57.1h13.49v8.31s5.18-9.75,16.86-9.75c13.74,0,17.71,10,17.71,10s4.82-10,18.19-10C377.71,381.73,386.14,389.8,386.14,403.53Z" transform="translate(-14.98 -49.63)"/></g></svg>