<svg id="Layer_1" data-name="Layer 1" xmlns="http://www.w3.org/2000/svg" xmlns:xlink="http://www.w3.org/1999/xlink" viewBox="0 0 1083.81 299.75"><defs><style>.cls-1{fill:url(#linear-gradient);}.cls-2{fill:url(#linear-gradient-2);}.cls-3{fill:url(#linear-gradient-3);}.cls-4{fill:url(#linear-gradient-4);}.cls-5{fill:url(#linear-gradient-5);}.cls-6{fill:url(#linear-gradient-6);}.cls-7{fill:url(#linear-gradient-7);}.cls-8{fill:url(#linear-gradient-8);}.cls-9{fill:#396a28;}</style><linearGradient id="linear-gradient" x1="55.53" y1="149.88" x2="55.53" y2="207.62" gradientUnits="userSpaceOnUse"><stop offset="0" stop-color="#346323"/><stop offset="1" stop-color="#9bcc60"/></linearGradient><linearGradient id="linear-gradient-2" x1="55.53" y1="92.13" x2="55.53" y2="149.88" gradientUnits="userSpaceOnUse"><stop offset="0" stop-color="#c0db70"/><stop offset="0.04" stop-color="#bad96d"/><stop offset="0.32" stop-color="#95cb57"/><stop offset="0.59" stop-color="#79c048"/><stop offset="0.82" stop-color="#69ba3e"/><stop offset="1" stop-color="#63b83b"/></linearGradient><linearGradient id="linear-gradient-3" x1="92.13" y1="244.22" x2="149.88" y2="244.22" gradientUnits="userSpaceOnUse"><stop offset="0" stop-color="#c9e074"/><stop offset="0.13" stop-color="#b5d869"/><stop offset="0.37" stop-color="#92cb56"/><stop offset="0.61" stop-color="#79c248"/><stop offset="0.82" stop-color="#6abc40"/><stop offset="1" stop-color="#65ba3d"/></linearGradient><linearGradient id="linear-gradient-4" x1="149.88" y1="244.22" x2="207.63" y2="244.22" gradientUnits="userSpaceOnUse"><stop offset="0" stop-color="#336123"/><stop offset="1" stop-color="#9acc5c"/></linearGradient><linearGradient id="linear-gradient-5" x1="244.22" y1="207.63" x2="244.22" y2="149.87" gradientUnits="userSpaceOnUse"><stop offset="0" stop-color="#c5e06c"/><stop offset="0.02" stop-color="#c2df6b"/><stop offset="0.32" stop-color="#9bcf57"/><stop offset="0.59" stop-color="#7ec349"/><stop offset="0.83" stop-color="#6dbc40"/><stop offset="1" stop-color="#67ba3d"/></linearGradient><linearGradient id="linear-gradient-6" x1="244.22" y1="92.13" x2="244.22" y2="149.88" gradientUnits="userSpaceOnUse"><stop offset="0" stop-color="#9bcf5a"/><stop offset="0.56" stop-color="#5d8f39"/><stop offset="1" stop-color="#316121"/></linearGradient><linearGradient id="linear-gradient-7" x1="149.88" y1="55.53" x2="207.63" y2="55.53" gradientUnits="userSpaceOnUse"><stop offset="0" stop-color="#305c20"/><stop offset="1" stop-color="#99cc5e"/></linearGradient><linearGradient id="linear-gradient-8" x1="92.13" y1="55.53" x2="149.88" y2="55.53" gradientUnits="userSpaceOnUse"><stop offset="0" stop-color="#c5e06b"/><stop offset="0.28" stop-color="#a0d05a"/><stop offset="0.58" stop-color="#7dc14a"/><stop offset="0.84" stop-color="#67b840"/><stop offset="1" stop-color="#5fb53c"/></linearGradient></defs><title>ELLA_name_Europa-black</title><g id="LeftLeaf"><polygon id="LeftBottom" class="cls-1" points="0 149.88 81.81 207.63 111.06 178.06 82.75 149.88 0 149.88"/><polygon id="LeftTop" class="cls-2" points="0 149.88 81.81 92.13 111.06 121.69 82.75 149.88 0 149.88"/></g><g id="BottomLeaf"><polygon id="BottomLeft" class="cls-3" points="149.88 299.75 92.13 217.94 121.69 188.69 149.88 217 149.88 299.75"/><polygon id="BottomRight" class="cls-4" points="149.88 299.75 207.63 217.94 178.06 188.69 149.88 217 149.88 299.75"/></g><g id="RightLeaf"><polygon id="RightBottomLeaf" class="cls-5" points="299.75 149.88 217.94 207.63 188.69 178.06 217 149.88 299.75 149.88"/><polygon id="RightTopLeaf" class="cls-6" points="299.75 149.88 217.94 92.13 188.69 121.69 217 149.88 299.75 149.88"/></g><g id="TopLeaf"><polygon id="TopRight" class="cls-7" points="149.88 0 207.63 81.81 178.06 111.06 149.88 82.75 149.88 0"/><polygon id="TopLeft" class="cls-8" points="149.88 0 92.13 81.81 121.69 111.06 149.88 82.75 149.88 0"/></g><rect id="Center" class="cls-9" x="167.13" y="166.13" width="66.75" height="66.75" transform="translate(-132.97 150.58) rotate(-45)"/><g id="Ellaism-Europa-blk"><path d="M429.65,186.14h66.64v27.14H429.65V258h73.78v27.13H401.08V118.54H502v27.14H429.65Z" transform="translate(-50.63 -49.63)"/><path d="M531,105.22h28.57V285.16H531Z" transform="translate(-50.63 -49.63)"/><path d="M594.83,105.22H623.4V285.16H594.83Z" transform="translate(-50.63 -49.63)"/><path d="M754.31,211.61v73.55H727.89V270.88S716.22,288,690.76,288c-21.19,0-40.71-13.81-40.71-37.85,0-21.66,19.76-37.37,44.28-37.37,20.7,0,31.42,8.09,31.42,8.09v-6.42c0-14.76-14.29-19.52-24.28-19.52-16.43,0-33.8,8.33-33.8,8.33l-9.28-23.56s20.94-10.24,44.51-10.24C735.27,169.48,754.31,185.91,754.31,211.61Zm-28.56,39.51V239.46s-10.24-5.71-25.71-5.71c-8.81,0-20.95,3.81-20.95,15.95,0,11.9,11.67,14.51,20.47,14.51C716.7,264.21,725.75,251.12,725.75,251.12Z" transform="translate(-50.63 -49.63)"/><path d="M801.68,117.12a18.8,18.8,0,1,1-18.81,18.8A18.69,18.69,0,0,1,801.68,117.12Zm-14.29,55.22H816V285.16H787.39Z" transform="translate(-50.63 -49.63)"/><path d="M857.85,246.84s15,16.18,34,16.18c11.66,0,21.42-3.33,21.42-10.23,0-7.38-5.24-8.81-22.37-12.38-22.38-4.76-41.9-14.28-41.9-35.7,0-17.62,17.62-35.23,48.56-35.23A72,72,0,0,1,940,183.29l-14.28,20.94s-12.86-9.76-28.09-9.76c-10.71,0-20.47,3.81-20.47,10.71s7.62,8.57,26.66,12.62c22.37,4.76,38.32,12.14,38.32,35.47,0,19.27-20.47,34.75-49.27,34.75-33.09,0-50.94-20.47-50.94-20.47Z" transform="translate(-50.63 -49.63)"/><path d="M1134.43,212.56v72.6h-28.56V219.94c0-15.47-5.95-23.8-20.23-23.8-15,0-22.14,14.52-22.14,14.52v74.5h-28.56V219.94c0-15.47-6-23.8-20.23-23.8-15,0-22.14,14.52-22.14,14.52v74.5H964V172.34h26.66v16.42s10.23-19.28,33.32-19.28c27.13,0,35,19.76,35,19.76s9.52-19.76,35.94-19.76C1117.77,169.48,1134.43,185.43,1134.43,212.56Z" transform="translate(-50.63 -49.63)"/></g></svg>
