<svg id="Layer_1" data-name="Layer 1" xmlns="http://www.w3.org/2000/svg" xmlns:xlink="http://www.w3.org/1999/xlink" viewBox="0 0 1080.38 469.86"><defs><style>.cls-1{fill:url(#linear-gradient);}.cls-2{fill:url(#linear-gradient-2);}.cls-3{fill:url(#linear-gradient-3);}.cls-4{fill:url(#linear-gradient-4);}.cls-5{fill:url(#linear-gradient-5);}.cls-6{fill:url(#linear-gradient-6);}.cls-7{fill:url(#linear-gradient-7);}.cls-8{fill:url(#linear-gradient-8);}.cls-9{fill:#396a28;}.cls-10{fill:red;stroke:red;stroke-width:18.7px;}.cls-11{font-size:387.67px;font-family:AdageScriptJF, AdageScriptJF;letter-spacing:0.08em;}</style><linearGradient id="linear-gradient" x1="836.16" y1="180.63" x2="836.16" y2="238.38" gradientUnits="userSpaceOnUse"><stop offset="0" stop-color="#346323"/><stop offset="1" stop-color="#9bcc60"/></linearGradient><linearGradient id="linear-gradient-2" x1="836.16" y1="122.88" x2="836.16" y2="180.63" gradientUnits="userSpaceOnUse"><stop offset="0" stop-color="#c0db70"/><stop offset="0.04" stop-color="#bad96d"/><stop offset="0.32" stop-color="#95cb57"/><stop offset="0.59" stop-color="#79c048"/><stop offset="0.82" stop-color="#69ba3e"/><stop offset="1" stop-color="#63b83b"/></linearGradient><linearGradient id="linear-gradient-3" x1="872.75" y1="274.97" x2="930.5" y2="274.97" gradientUnits="userSpaceOnUse"><stop offset="0" stop-color="#c9e074"/><stop offset="0.13" stop-color="#b5d869"/><stop offset="0.37" stop-color="#92cb56"/><stop offset="0.61" stop-color="#79c248"/><stop offset="0.82" stop-color="#6abc40"/><stop offset="1" stop-color="#65ba3d"/></linearGradient><linearGradient id="linear-gradient-4" x1="930.5" y1="274.97" x2="988.25" y2="274.97" gradientUnits="userSpaceOnUse"><stop offset="0" stop-color="#336123"/><stop offset="1" stop-color="#9acc5c"/></linearGradient><linearGradient id="linear-gradient-5" x1="1024.84" y1="238.38" x2="1024.84" y2="180.63" gradientUnits="userSpaceOnUse"><stop offset="0" stop-color="#c5e06c"/><stop offset="0.02" stop-color="#c2df6b"/><stop offset="0.32" stop-color="#9bcf57"/><stop offset="0.59" stop-color="#7ec349"/><stop offset="0.83" stop-color="#6dbc40"/><stop offset="1" stop-color="#67ba3d"/></linearGradient><linearGradient id="linear-gradient-6" x1="1024.84" y1="122.88" x2="1024.84" y2="180.63" gradientUnits="userSpaceOnUse"><stop offset="0" stop-color="#9bcf5a"/><stop offset="0.56" stop-color="#5d8f39"/><stop offset="1" stop-color="#316121"/></linearGradient><linearGradient id="linear-gradient-7" x1="930.5" y1="86.28" x2="988.25" y2="86.28" gradientUnits="userSpaceOnUse"><stop offset="0" stop-color="#305c20"/><stop offset="1" stop-color="#99cc5e"/></linearGradient><linearGradient id="linear-gradient-8" x1="872.75" y1="86.28" x2="930.5" y2="86.28" gradientUnits="userSpaceOnUse"><stop offset="0" stop-color="#c5e06b"/><stop offset="0.28" stop-color="#a0d05a"/><stop offset="0.58" stop-color="#7dc14a"/><stop offset="0.84" stop-color="#67b840"/><stop offset="1" stop-color="#5fb53c"/></linearGradient></defs><title>I_Love_Ella_alt</title><g id="LeftLeaf"><polygon id="LeftBottom" class="cls-1" points="780.63 180.63 862.44 238.38 891.69 208.81 863.38 180.63 780.63 180.63"/><polygon id="LeftTop" class="cls-2" points="780.63 180.63 862.44 122.88 891.69 152.44 863.38 180.63 780.63 180.63"/></g><g id="BottomLeaf"><polygon id="BottomLeft" class="cls-3" points="930.5 330.5 872.75 248.69 902.31 219.44 930.5 247.75 930.5 330.5"/><polygon id="BottomRight" class="cls-4" points="930.5 330.5 988.25 248.69 958.69 219.44 930.5 247.75 930.5 330.5"/></g><g id="RightLeaf"><polygon id="RightBottomLeaf" class="cls-5" points="1080.38 180.63 998.56 238.38 969.31 208.81 997.63 180.63 1080.38 180.63"/><polygon id="RightTopLeaf" class="cls-6" points="1080.38 180.63 998.56 122.88 969.31 152.44 997.63 180.63 1080.38 180.63"/></g><g id="TopLeaf"><polygon id="TopRight" class="cls-7" points="930.5 30.75 988.25 112.56 958.69 141.81 930.5 113.5 930.5 30.75"/><polygon id="TopLeft" class="cls-8" points="930.5 30.75 872.75 112.56 902.31 141.81 930.5 113.5 930.5 30.75"/></g><rect id="Center" class="cls-9" x="167.13" y="166.13" width="66.75" height="66.75" transform="translate(647.66 181.33) rotate(-45)"/><g id="layer1"><path id="path7" class="cls-10" d="M-184.51,87.88c-37.25,0-67.49,31.38-67.49,70,0,78.65,76.45,99.28,128.55,177C-74.19,257.67,5.1,234.06,5.1,157.92c0-38.66-30.24-70-67.49-70-27,0-50.28,16.56-61.06,40.38C-134.23,104.44-157.48,87.88-184.51,87.88Z" transform="translate(730 -18.87)"/></g><text class="cls-11" transform="translate(204.63 329.52)">I</text><text x="730" y="-18.87"></text></svg>