<svg id="Layer_1" data-name="Layer 1" xmlns="http://www.w3.org/2000/svg" xmlns:xlink="http://www.w3.org/1999/xlink" viewBox="0 0 1080.38 299.75"><defs><style>.cls-1{fill:url(#linear-gradient);}.cls-2{fill:url(#linear-gradient-2);}.cls-3{fill:url(#linear-gradient-3);}.cls-4{fill:url(#linear-gradient-4);}.cls-5{fill:url(#linear-gradient-5);}.cls-6{fill:url(#linear-gradient-6);}.cls-7{fill:url(#linear-gradient-7);}.cls-8{fill:url(#linear-gradient-8);}.cls-9{fill:#396a28;}.cls-10{fill:#ee2722;}.cls-11{fill:#231f20;}</style><linearGradient id="linear-gradient" x1="836.16" y1="149.88" x2="836.16" y2="207.62" gradientUnits="userSpaceOnUse"><stop offset="0" stop-color="#346323"/><stop offset="1" stop-color="#9bcc60"/></linearGradient><linearGradient id="linear-gradient-2" x1="836.16" y1="92.13" x2="836.16" y2="149.88" gradientUnits="userSpaceOnUse"><stop offset="0" stop-color="#c0db70"/><stop offset="0.04" stop-color="#bad96d"/><stop offset="0.32" stop-color="#95cb57"/><stop offset="0.59" stop-color="#79c048"/><stop offset="0.82" stop-color="#69ba3e"/><stop offset="1" stop-color="#63b83b"/></linearGradient><linearGradient id="linear-gradient-3" x1="872.75" y1="244.22" x2="930.5" y2="244.22" gradientUnits="userSpaceOnUse"><stop offset="0" stop-color="#c9e074"/><stop offset="0.13" stop-color="#b5d869"/><stop offset="0.37" stop-color="#92cb56"/><stop offset="0.61" stop-color="#79c248"/><stop offset="0.82" stop-color="#6abc40"/><stop offset="1" stop-color="#65ba3d"/></linearGradient><linearGradient id="linear-gradient-4" x1="930.5" y1="244.22" x2="988.25" y2="244.22" gradientUnits="userSpaceOnUse"><stop offset="0" stop-color="#336123"/><stop offset="1" stop-color="#9acc5c"/></linearGradient><linearGradient id="linear-gradient-5" x1="1024.84" y1="207.63" x2="1024.84" y2="149.87" gradientUnits="userSpaceOnUse"><stop offset="0" stop-color="#c5e06c"/><stop offset="0.02" stop-color="#c2df6b"/><stop offset="0.32" stop-color="#9bcf57"/><stop offset="0.59" stop-color="#7ec349"/><stop offset="0.83" stop-color="#6dbc40"/><stop offset="1" stop-color="#67ba3d"/></linearGradient><linearGradient id="linear-gradient-6" x1="1024.84" y1="92.13" x2="1024.84" y2="149.88" gradientUnits="userSpaceOnUse"><stop offset="0" stop-color="#9bcf5a"/><stop offset="0.56" stop-color="#5d8f39"/><stop offset="1" stop-color="#316121"/></linearGradient><linearGradient id="linear-gradient-7" x1="930.5" y1="55.53" x2="988.25" y2="55.53" gradientUnits="userSpaceOnUse"><stop offset="0" stop-color="#305c20"/><stop offset="1" stop-color="#99cc5e"/></linearGradient><linearGradient id="linear-gradient-8" x1="872.75" y1="55.53" x2="930.5" y2="55.53" gradientUnits="userSpaceOnUse"><stop offset="0" stop-color="#c5e06b"/><stop offset="0.28" stop-color="#a0d05a"/><stop offset="0.58" stop-color="#7dc14a"/><stop offset="0.84" stop-color="#67b840"/><stop offset="1" stop-color="#5fb53c"/></linearGradient></defs><title>I_Love_Ella</title><g id="LeftLeaf"><polygon id="LeftBottom" class="cls-1" points="780.63 149.88 862.44 207.63 891.69 178.06 863.38 149.88 780.63 149.88"/><polygon id="LeftTop" class="cls-2" points="780.63 149.88 862.44 92.13 891.69 121.69 863.38 149.88 780.63 149.88"/></g><g id="BottomLeaf"><polygon id="BottomLeft" class="cls-3" points="930.5 299.75 872.75 217.94 902.31 188.69 930.5 217 930.5 299.75"/><polygon id="BottomRight" class="cls-4" points="930.5 299.75 988.25 217.94 958.69 188.69 930.5 217 930.5 299.75"/></g><g id="RightLeaf"><polygon id="RightBottomLeaf" class="cls-5" points="1080.38 149.88 998.56 207.63 969.31 178.06 997.63 149.88 1080.38 149.88"/><polygon id="RightTopLeaf" class="cls-6" points="1080.38 149.88 998.56 92.13 969.31 121.69 997.63 149.88 1080.38 149.88"/></g><g id="TopLeaf"><polygon id="TopRight" class="cls-7" points="930.5 0 988.25 81.81 958.69 111.06 930.5 82.75 930.5 0"/><polygon id="TopLeft" class="cls-8" points="930.5 0 872.75 81.81 902.31 111.06 930.5 82.75 930.5 0"/></g><rect id="Center" class="cls-9" x="167.13" y="166.13" width="66.75" height="66.75" transform="translate(647.66 150.58) rotate(-45)"/><text x="730" y="-49.63"></text><path id="path2960" class="cls-10" d="M-217,60.75A61.57,61.57,0,0,1-181.06,69a75.33,75.33,0,0,1,7.7,4.94c1.53,1.42,12.18,9.78,14.26,12.5,1,1.31,11.2,13.58,11.2,13.58s9.66-10.28,11.37-12a65,65,0,0,1,7.84-6.37,182.4,182.4,0,0,1,19.76-13A61.59,61.59,0,0,1-90.7,62.4c1.28-.17,4.71-.63,6.24-.85,17.43-2.5,40,4.54,52.8,11.93C-17.53,81.6-7.8,93.59-.28,108.59c1.65,3.35,5.45,12.27,6.18,14.49,4,11.87,4.89,26.87,3.73,41.7C7.86,187.85-2,211.54-12.64,225.86c-2.14,2.84-7,11.13-13,18.29-19.76,23.64-49,53.07-78.43,71.7-8.26,5.23-39.89,22.56-39.89,22.56s-33-18.41-38.23-21.65c-33.35-20.68-70.18-50-90.73-83.12-7.16-11.53-15.42-23.18-20.13-37.27a157.86,157.86,0,0,1-5.69-19.26,111.52,111.52,0,0,1,2.32-52.84A134.75,134.75,0,0,1-288,103.65c11.08-21.54,31.63-35.68,58.68-41.19A89.16,89.16,0,0,1-217,60.75" transform="translate(730 -49.63)"/><path id="path2962" class="cls-11" d="M-355.12,61.26c1.47-.11,3,.63,4,.8,7.77,1.42,11,3.52,14.07,9.71C-330.4,85-338.85,97-350.29,99.5c-12.11,2.61-28.14-3.69-34.19,5.57-4,6.08-1.72,25-1.66,33.29.06,10.17-.12,19.94.49,30.11.31,4.66-.3,9.95.31,14.44.43,3.4-.43,7-.12,10a176.68,176.68,0,0,1,.79,24.38c-.37,11.08.25,21.13.12,31.7-.12,6.88-.85,14,.07,20.91.55,3.69,1.4,8.07,3.18,10.62,8.87,12.45,36.21-2.5,45.58,12.05a15.82,15.82,0,0,1,1.89,3.41c.19.68.31,1.25.49,2,2,8.58-1.16,16.2-6.42,19.66a15.71,15.71,0,0,1-2.57,1.36c-5.57,2-14.56,1.94-21.84,1.31-10.1-.91-19.46.06-28.88-.74a179.17,179.17,0,0,0-29.67,0c-8.51.91-18.36,1-26.8,1.54-4,.22-7.71,1.25-12.11.45-5.69-1-10.65-3.81-13.09-8.12-4.59-8.13-3.12-20.06,3.79-24.77,1.9-1.25,4.34-1.71,6.85-2.45,13.15-4.09,30.22,4.09,37.2-7.44,4.46-7.33,1.1-26.14,1.89-36.48.68-9.14-.06-20.34-.3-28.91-.37-13.13-.49-45.06-.49-45.06-.49-13.52.49-27.38-.49-40.51-.37-5.28.67-10,0-15.28a19.79,19.79,0,0,0-2.39-7.73c-5.32-8.46-24.77-3.18-35.36-4.54-5.14-.63-8.93-3.53-12-6.37-3.91-3.58-6.24-12.1-4-19A16.67,16.67,0,0,1-477.66,70c2.75-3.86,7.28-6.42,13-7.27,4.16-.57,8.38-.17,12.3,0,10,.51,20.13.34,29.85.8,22.64,1.13,45.21-.46,67.36-2.28" transform="translate(730 -49.63)"/></svg>