<svg id="Layer_1" data-name="Layer 1" xmlns="http://www.w3.org/2000/svg" xmlns:xlink="http://www.w3.org/1999/xlink" viewBox="0 0 1080.38 299.75"><defs><style>.cls-1{fill:url(#linear-gradient);}.cls-2{fill:url(#linear-gradient-2);}.cls-3{fill:url(#linear-gradient-3);}.cls-4{fill:url(#linear-gradient-4);}.cls-5{fill:url(#linear-gradient-5);}.cls-6{fill:url(#linear-gradient-6);}.cls-7{fill:url(#linear-gradient-7);}.cls-8{fill:url(#linear-gradient-8);}.cls-9{fill:#396a28;}.cls-10{fill:#ee2722;}.cls-11{fill:#fff;}</style><linearGradient id="linear-gradient" x1="836.16" y1="149.88" x2="836.16" y2="207.62" gradientUnits="userSpaceOnUse"><stop offset="0" stop-color="#346323"/><stop offset="1" stop-color="#9bcc60"/></linearGradient><linearGradient id="linear-gradient-2" x1="836.16" y1="92.13" x2="836.16" y2="149.88" gradientUnits="userSpaceOnUse"><stop offset="0" stop-color="#c0db70"/><stop offset="0.04" stop-color="#bad96d"/><stop offset="0.32" stop-color="#95cb57"/><stop offset="0.59" stop-color="#79c048"/><stop offset="0.82" stop-color="#69ba3e"/><stop offset="1" stop-color="#63b83b"/></linearGradient><linearGradient id="linear-gradient-3" x1="872.75" y1="244.22" x2="930.5" y2="244.22" gradientUnits="userSpaceOnUse"><stop offset="0" stop-color="#c9e074"/><stop offset="0.13" stop-color="#b5d869"/><stop offset="0.37" stop-color="#92cb56"/><stop offset="0.61" stop-color="#79c248"/><stop offset="0.82" stop-color="#6abc40"/><stop offset="1" stop-color="#65ba3d"/></linearGradient><linearGradient id="linear-gradient-4" x1="930.5" y1="244.22" x2="988.25" y2="244.22" gradientUnits="userSpaceOnUse"><stop offset="0" stop-color="#336123"/><stop offset="1" stop-color="#9acc5c"/></linearGradient><linearGradient id="linear-gradient-5" x1="1024.84" y1="207.63" x2="1024.84" y2="149.87" gradientUnits="userSpaceOnUse"><stop offset="0" stop-color="#c5e06c"/><stop offset="0.02" stop-color="#c2df6b"/><stop offset="0.32" stop-color="#9bcf57"/><stop offset="0.59" stop-color="#7ec349"/><stop offset="0.83" stop-color="#6dbc40"/><stop offset="1" stop-color="#67ba3d"/></linearGradient><linearGradient id="linear-gradient-6" x1="1024.84" y1="92.13" x2="1024.84" y2="149.88" gradientUnits="userSpaceOnUse"><stop offset="0" stop-color="#9bcf5a"/><stop offset="0.56" stop-color="#5d8f39"/><stop offset="1" stop-color="#316121"/></linearGradient><linearGradient id="linear-gradient-7" x1="930.5" y1="55.53" x2="988.25" y2="55.53" gradientUnits="userSpaceOnUse"><stop offset="0" stop-color="#305c20"/><stop offset="1" stop-color="#99cc5e"/></linearGradient><linearGradient id="linear-gradient-8" x1="872.75" y1="55.53" x2="930.5" y2="55.53" gradientUnits="userSpaceOnUse"><stop offset="0" stop-color="#c5e06b"/><stop offset="0.28" stop-color="#a0d05a"/><stop offset="0.58" stop-color="#7dc14a"/><stop offset="0.84" stop-color="#67b840"/><stop offset="1" stop-color="#5fb53c"/></linearGradient></defs><title>I_Love_Ella-white</title><g id="LeftLeaf"><polygon id="LeftBottom" class="cls-1" points="780.63 149.88 862.44 207.63 891.69 178.06 863.38 149.88 780.63 149.88"/><polygon id="LeftTop" class="cls-2" points="780.63 149.88 862.44 92.13 891.69 121.69 863.38 149.88 780.63 149.88"/></g><g id="BottomLeaf"><polygon id="BottomLeft" class="cls-3" points="930.5 299.75 872.75 217.94 902.31 188.69 930.5 217 930.5 299.75"/><polygon id="BottomRight" class="cls-4" points="930.5 299.75 988.25 217.94 958.69 188.69 930.5 217 930.5 299.75"/></g><g id="RightLeaf"><polygon id="RightBottomLeaf" class="cls-5" points="1080.38 149.88 998.56 207.63 969.31 178.06 997.63 149.88 1080.38 149.88"/><polygon id="RightTopLeaf" class="cls-6" points="1080.38 149.88 998.56 92.13 969.31 121.69 997.63 149.88 1080.38 149.88"/></g><g id="TopLeaf"><polygon id="TopRight" class="cls-7" points="930.5 0 988.25 81.81 958.69 111.06 930.5 82.75 930.5 0"/><polygon id="TopLeft" class="cls-8" points="930.5 0 872.75 81.81 902.31 111.06 930.5 82.75 930.5 0"/></g><rect id="Center" class="cls-9" x="167.13" y="166.13" width="66.75" height="66.75" transform="translate(647.66 150.58) rotate(-45)"/><text x="730" y="-49.63"></text><path id="path2960" class="cls-10" d="M-173.32,77.43A54.29,54.29,0,0,1-141.6,84.7a68.09,68.09,0,0,1,6.81,4.37c1.35,1.25,10.76,8.63,12.59,11,.92,1.16,9.9,12,9.9,12s8.53-9.09,10-10.64a56.35,56.35,0,0,1,6.92-5.62,161,161,0,0,1,17.45-11.5,54.49,54.49,0,0,1,16.11-5.47c1.14-.15,4.16-.55,5.51-.75,15.41-2.21,35.35,4,46.65,10.54,12.48,7.18,21.08,17.77,27.72,31,1.46,3,4.81,10.84,5.46,12.8,3.51,10.49,4.33,23.74,3.3,36.84-1.57,20.38-10.32,41.31-19.67,54-1.9,2.5-6.22,9.83-11.46,16.16-17.46,20.88-43.3,46.88-69.29,63.34-7.3,4.62-35.24,19.93-35.24,19.93s-29.13-16.27-33.78-19.13c-29.46-18.27-62-44.17-80.15-73.43-6.33-10.19-13.62-20.48-17.79-32.92a140.61,140.61,0,0,1-5-17,98.46,98.46,0,0,1,2.05-46.68,117.54,117.54,0,0,1,7.41-18.22c9.78-19,27.94-31.52,51.83-36.39a79.54,79.54,0,0,1,10.92-1.5" transform="translate(730 -49.63)"/><path id="path2962" class="cls-11" d="M-295.36,77.88c1.29-.1,2.64.55,3.56.7,6.87,1.25,9.73,3.11,12.43,8.58,5.84,11.7-1.62,22.29-11.72,24.5-10.71,2.31-24.87-3.27-30.22,4.92-3.51,5.37-1.51,22.08-1.46,29.41.06,9-.11,17.62.44,26.6.27,4.12-.27,8.78.27,12.75.37,3-.38,6.17-.11,8.83a156.4,156.4,0,0,1,.7,21.54c-.32,9.78.22,18.67.11,28-.11,6.08-.76,12.35.05,18.47.49,3.27,1.25,7.13,2.81,9.39,7.84,11,32-2.21,40.27,10.64a13.93,13.93,0,0,1,1.67,3c.17.61.27,1.11.44,1.81,1.78,7.58-1,14.3-5.68,17.37a14.33,14.33,0,0,1-2.27,1.2c-4.92,1.76-12.86,1.71-19.29,1.16-8.92-.81-17.19.05-25.51-.66a158.26,158.26,0,0,0-26.22,0c-7.51.81-16.21.91-23.67,1.36-3.57.2-6.81,1.1-10.7.4-5-.85-9.41-3.36-11.57-7.18-4.05-7.18-2.75-17.72,3.35-21.88,1.68-1.11,3.84-1.51,6.06-2.16,11.62-3.61,26.7,3.61,32.86-6.58,3.94-6.47,1-23.08,1.67-32.22.6-8.08-.05-18-.27-25.55-.32-11.59-.43-39.8-.43-39.8-.43-12,.43-24.19-.43-35.79-.33-4.66.59-8.83,0-13.5a17.69,17.69,0,0,0-2.11-6.83c-4.7-7.47-21.89-2.81-31.24-4-4.54-.55-7.89-3.11-10.59-5.62-3.46-3.16-5.52-10.69-3.52-16.77a14.55,14.55,0,0,1,2.06-4.36c2.43-3.42,6.43-5.67,11.51-6.43a60.59,60.59,0,0,1,10.86,0c8.87.45,17.78.3,26.38.7,20,1,39.94-.4,59.51-2" transform="translate(730 -49.63)"/></svg>